/* XPM */
static char *_3bf74fa8de34023cc957c2b42de02210qETqOA0Gybt2YwS[] = {
/* columns rows colors chars-per-pixel */
"16 16 61 1 ",
"  c #1F005B",
". c #1F0062",
"X c #220063",
"o c #220066",
"O c #240064",
"+ c #240069",
"@ c #21006C",
"# c #25006C",
"$ c #250072",
"% c #280073",
"& c #2B0076",
"* c #280078",
"= c #2C0078",
"- c #2E007E",
"; c #30007F",
": c #320082",
"> c #320084",
", c #350085",
"< c #370089",
"1 c #38008A",
"2 c #39008C",
"3 c #3E028F",
"4 c #3E0191",
"5 c #420393",
"6 c #420296",
"7 c #430496",
"8 c #450497",
"9 c #470699",
"0 c #4A069A",
"q c #4C069B",
"w c #4B079D",
"e c #4E069F",
"r c #47089A",
"t c #48089C",
"y c #4D089F",
"u c #510AA2",
"i c #540BA3",
"p c #500CA2",
"a c #570DA3",
"s c #560AA7",
"d c #550CA4",
"f c #580CA6",
"g c #5A10A6",
"h c #5A11A9",
"j c #5F11AB",
"k c #6112AF",
"l c #6518AE",
"z c #6518B1",
"x c #6A1AB3",
"c c #6D1DB5",
"v c #701FB6",
"b c #6F20B5",
"n c #7121B5",
"m c #7021B8",
"M c #7423BA",
"N c #7625BB",
"B c #7423BC",
"V c #7728BB",
"C c #7828BB",
"Z c #7D2EBF",
"A c #994CCE",
/* pixels */
"%%.:jq#o.;,@;vck",
":#<22y;<2s0%;9Va",
":542jg28&<u<8khx",
"zk6MN<#,+#2%;zx8",
"v9sv:O=26<u<.%pa",
"8#92#;f6vygc<.=1",
"#.82=69jcvqfk>%3",
"55z8$;eAq4ges4>g",
";>x9%*9v&:&wMi&2",
"##2<>;=<, <gh:o:",
"a<w5##>oo%:,w82k",
"d20m8#:&#;:dB0,j",
"&*&iCt=67>wZ8#;>",
"#=#;lk5za2z5##2*",
">%>&:2*<;=<%#632",
"b&#:0g%oX:1-10rn"
};
