/* XPM */
static char *_fca703dd0b249ecd43d422094968fcb1PRPOm62eAWffV5X[] = {
/* columns rows colors chars-per-pixel */
"16 16 61 1 ",
"  c #1F005B",
". c #1F0060",
"X c #220063",
"o c #220066",
"O c #240064",
"+ c #240069",
"@ c #21006C",
"# c #26006D",
"$ c #250072",
"% c #280073",
"& c #2B0075",
"* c #280078",
"= c #2D007B",
"- c #2E007E",
"; c #30007D",
": c #310080",
"> c #320084",
", c #350085",
"< c #360088",
"1 c #38008A",
"2 c #3A028E",
"3 c #3E028F",
"4 c #3F0390",
"5 c #400293",
"6 c #420395",
"7 c #430496",
"8 c #450497",
"9 c #470699",
"0 c #4A069A",
"q c #4C069B",
"w c #4B079D",
"e c #4E069F",
"r c #47089A",
"t c #48089C",
"y c #4D089F",
"u c #510AA2",
"i c #540BA3",
"p c #500CA2",
"a c #570DA3",
"s c #560AA7",
"d c #550CA4",
"f c #580CA6",
"g c #5910A4",
"h c #5A11A9",
"j c #5F11AB",
"k c #6112AF",
"l c #6518AE",
"z c #6719B0",
"x c #6A1AB3",
"c c #6D1DB5",
"v c #701FB7",
"b c #6F20B5",
"n c #7121B5",
"m c #7021B8",
"M c #7423BA",
"N c #7625BB",
"B c #7423BC",
"V c #7728BB",
"C c #7828BB",
"Z c #7D2EBF",
"A c #994CCE",
/* pixels */
"b>#&da#;5#8vz::%",
"&%=*2<#>5.#9k5#%",
"#>#&0w2xz89s64<.",
":&;im5<9822vM22:",
"0:lC8#>%$=#:Nj2j",
"g2kt##;*;6;O<gyq",
"%*5=:>=9e9f=#2;#",
"o<z6&o<vAj62,8<o",
"X;a7#o,&qcv6+&2.",
":=2>;% :4vy<#<s;",
"1<zw::<&gqgu2u0,",
"-%5Zd,gwefc<%<%@",
"1##8BwhMsk<.;8;;",
"06##08:i4>.%zk9v",
"r32;,2o&>%=pxhVc",
"n2*>jk:2g31a8xak"
};
