/* XPM */
static char *_91a0488af4a4e14affa367c91fb858awDhhJyc8zySnIgsJ[] = {
/* columns rows colors chars-per-pixel */
"16 16 61 1 ",
"  c #1F005B",
". c #1F0060",
"X c #220063",
"o c #220066",
"O c #240064",
"+ c #240069",
"@ c #21006C",
"# c #25006C",
"$ c #250072",
"% c #280073",
"& c #290076",
"* c #280078",
"= c #2D007B",
"- c #2E007E",
"; c #30007D",
": c #310080",
"> c #320084",
", c #350085",
"< c #370089",
"1 c #38008A",
"2 c #39008C",
"3 c #3E028F",
"4 c #3E0191",
"5 c #420393",
"6 c #420395",
"7 c #430496",
"8 c #450497",
"9 c #470699",
"0 c #4B0699",
"q c #4C069B",
"w c #4B069F",
"e c #4E069F",
"r c #47089A",
"t c #48089C",
"y c #4D089F",
"u c #510AA2",
"i c #540BA3",
"p c #500CA2",
"a c #570DA3",
"s c #560AA7",
"d c #550CA4",
"f c #580CA6",
"g c #5A10A6",
"h c #5A11A9",
"j c #5F11AB",
"k c #6012AC",
"l c #6518AE",
"z c #6719B2",
"x c #6A1AB3",
"c c #6D1DB4",
"v c #701FB6",
"b c #6F20B5",
"n c #7121B5",
"m c #7021B8",
"M c #7423BA",
"N c #7625BB",
"B c #7423BC",
"V c #7728BB",
"C c #7828BB",
"Z c #7D2EBF",
"A c #994CCE",
/* pixels */
"nr01-1:Xo%g0:#&b",
"236#%<=;<*2:&>%>",
"*2##5z2az5kl;#=#",
">;#8Zw>76=tCi&*&",
"j,0Bd:;#&:#8m02d",
"k28w,:%oo>##5w<a",
":o:hg< ,<=;><2##",
"2&iMw&:&v9*%9x>;",
"g>4seg4qAe;$8z55",
"3%>kfqvcj96=28.#",
"1=.<cgyv6f;#29#8",
"ap%.<u<62=O:vs9v",
"8xz;%2#+,#<NM6kz",
"xhk8<u<&82gj245:",
"aV9;%0s2<;y22<#:",
"kcv;@,;.o#qj:.%%"
};
