/* XPM */
static char *_1c2511ab4c54553b79ad03a1740e409aP07b5p4Gt7byHu6[] = {
/* columns rows colors chars-per-pixel */
"16 16 240 2 ",
"   c #333826",
".  c #343927",
"X  c #343928",
"o  c #363A29",
"O  c #373B2C",
"+  c #383D2B",
"@  c #36392D",
"#  c #373A2D",
"$  c #373A2E",
"%  c #373A2F",
"&  c #373B2D",
"*  c #373C2D",
"=  c #373B2F",
"-  c #393E2D",
";  c #383A2F",
":  c #3A3E30",
">  c #3B3F32",
",  c #3B422D",
"<  c #3C4130",
"1  c #3C4231",
"2  c #3D4232",
"3  c #3C4430",
"4  c #3D4431",
"5  c #3D4432",
"6  c #3E4631",
"7  c #3F4831",
"8  c #3F4732",
"9  c #363636",
"0  c #373836",
"q  c #363636",
"w  c #363637",
"e  c #373737",
"r  c #373838",
"t  c #373737",
"y  c #3B3D32",
"u  c #3A3D34",
"i  c #3B3C35",
"p  c #3C3C36",
"a  c #3C3D36",
"s  c #39383B",
"d  c #3A3A39",
"f  c #3A393A",
"g  c #3B3B39",
"h  c #3B3B3C",
"j  c #3D3D3C",
"k  c #3E3E3B",
"l  c #3E3F3B",
"z  c #3E3E3C",
"x  c #3E3E3C",
"c  c #3E3F3C",
"v  c #3D3C3E",
"b  c #3C4032",
"n  c #3C4132",
"m  c #3D4232",
"M  c #3F4236",
"N  c #3F413B",
"B  c #3E413D",
"V  c #404933",
"C  c #424A34",
"Z  c #424B34",
"A  c #434C33",
"S  c #424B35",
"D  c #434A37",
"F  c #444C36",
"G  c #444C36",
"H  c #444F35",
"J  c #444E36",
"K  c #465037",
"L  c #404438",
"P  c #41463B",
"I  c #43483E",
"U  c #444C39",
"Y  c #454C39",
"T  c #454C3A",
"R  c #454D39",
"E  c #464D39",
"W  c #464E39",
"Q  c #474E3A",
"!  c #44483C",
"~  c #464B3E",
"^  c #454A3F",
"/  c #464A3F",
"(  c #484C3E",
")  c #3F3F40",
"_  c #3F3E41",
"`  c #424240",
"'  c #444442",
"]  c #434442",
"[  c #444543",
"{  c #454543",
"}  c #444444",
"|  c #444445",
" . c #454545",
".. c #454640",
"X. c #474B42",
"o. c #484B43",
"O. c #494E41",
"+. c #484944",
"@. c #494B45",
"#. c #494945",
"$. c #494B46",
"%. c #494B46",
"&. c #4A4B46",
"*. c #454457",
"=. c #464657",
"-. c #474658",
";. c #484759",
":. c #494957",
">. c #494758",
",. c #494759",
"<. c #4A4A59",
"1. c #4A4A4A",
"2. c #4B4A4A",
"3. c #4A4B47",
"4. c #4A4B48",
"5. c #4A4B4A",
"6. c #4B4D48",
"7. c #4D4F4B",
"8. c #4B494C",
"9. c #4B4A4C",
"0. c #4B494E",
"q. c #4C4C4B",
"w. c #4B4B4C",
"e. c #4C4C4C",
"r. c #4D4C4C",
"t. c #4C4C4D",
"y. c #4C4C4F",
"u. c #4E4C4D",
"i. c #4D4B4E",
"p. c #4D4C4E",
"a. c #4D4E4D",
"s. c #4D4D4E",
"d. c #4D4E4E",
"f. c #4F4C4E",
"g. c #464F36",
"h. c #47503A",
"j. c #495139",
"k. c #49523A",
"l. c #4A513C",
"z. c #4C523C",
"x. c #4A543A",
"c. c #49503D",
"v. c #4A503E",
"b. c #4A533D",
"n. c #4C543E",
"m. c #4C563D",
"M. c #49503F",
"N. c #4C523F",
"B. c #4B5043",
"V. c #4C5143",
"C. c #4A4D46",
"Z. c #4C4D4D",
"A. c #4D5440",
"S. c #4F5540",
"D. c #515640",
"F. c #4C4E46",
"G. c #4C4F46",
"H. c #4E5140",
"J. c #4E5441",
"K. c #4E5541",
"L. c #4D5048",
"P. c #505349",
"I. c #4C4D48",
"U. c #4D4F49",
"Y. c #4E5049",
"T. c #51534A",
"R. c #53584A",
"E. c #4B4950",
"W. c #4C4A50",
"Q. c #4C4C50",
"!. c #4D4B50",
"~. c #4D4C50",
"^. c #4D4A51",
"/. c #4D4C51",
"(. c #4E4E50",
"). c #4D4D51",
"_. c #626261",
"`. c #4F4F4F",
"'. c #4E4E51",
"]. c #4E4F51",
"[. c #4E4E52",
"{. c #4F4E52",
"}. c #4F4F4F",
"|. c #505050",
" X c #50504F",
".X c #51514F",
"XX c #50524F",
"oX c #505150",
"OX c #515150",
"+X c #525250",
"@X c #525250",
"#X c #505051",
"$X c #504F52",
"%X c #505051",
"&X c #515151",
"*X c #515152",
"=X c #525252",
"-X c #525153",
";X c #535153",
":X c #535253",
">X c #535453",
",X c #535353",
"<X c #565853",
"1X c #535351",
"2X c #545452",
"3X c #545452",
"4X c #525154",
"5X c #535154",
"6X c #535255",
"7X c #545255",
"8X c #555255",
"9X c #555355",
"0X c #555455",
"qX c #565356",
"wX c #565656",
"eX c #585855",
"rX c #585857",
"tX c #595959",
"yX c #5A5A5A",
"uX c #5A5A5C",
"iX c #5A5A5A",
"pX c #5B5A5A",
"aX c #5B5C59",
"sX c #5B5B5D",
"dX c #5C5A5D",
"fX c #5C5B5D",
"gX c #5D5B5E",
"hX c #5E5C5F",
"jX c #60605D",
"kX c #5E5D60",
"lX c #5F5D61",
"zX c #606061",
"xX c #626262",
"cX c #636262",
"vX c #646263",
"bX c #646364",
"nX c #656464",
"mX c #656565",
"MX c #666565",
"NX c #666566",
/* pixels */
"lXzXM.K z.S.D.z.W aX<XJ.1XF.j.V ",
"MX7X7Xm z.k.m.A U.6XU.+XZ.^ A 5 ",
"MXdX{.L K W c.K 7.6XF.+X^ %.O.: ",
"MX.X3.{.M oXN.&.{.+XoXp.{.W.I y ",
"nXf.V o.p.{.Y 7.{.W g.V.:.[ p.[ ",
"7X8.1 6 C.W.8.:.D h.K 3 1 %.%XN ",
":.' > - B -.' y 5 6 , + L :.p.X.",
"z k 9 $ z ) d 9 q ; & & & p k k ",
"S.J.v.jXmXnXsXd :.xXnXxXmXT.b.K.",
"K 1XiXdXdX&X&Xd 7XnX&XiXhXiXiXP.",
"&X&X%XiX&X{.p.q 7XlX8.&X{.6XV.( ",
"&XiXiX&X{.W [ q iXiXp.~.W.&X^ ^ ",
"{.{.%X{.p.V %.s ~.P.m.Y.6X&Xp.2.",
"p.p.| 3.Y 6 3.s W.R.L.~.p.{.{.~.",
"| ] b b 6 X.{.d *.Y 1 %.*.%.p.:.",
"k $ X . o z z q q @ . O p ) a $ "
};

