/* XPM */
static char *_61ca27300c2471a9eb5014e007e6e26y7KEOLzcTQTPIk1m[] = {
/* columns rows colors chars-per-pixel */
"96 96 7 1 ",
"  c #101010",
". c #887300",
"X c #C0A200",
"o c #E0BD00",
"O c gold",
"+ c #FFE140",
"@ c None",
/* pixels */
"@@@@@@@@@@@@@@@@@@@@@@@@                                                @@@@@@@@@@@@@@@@@@@@@@@@",
"@@@@@@@@@@@@@@@@@@@@@@@@                                                @@@@@@@@@@@@@@@@@@@@@@@@",
"@@@@@@@@@@@@@@@@@@@@@@@@                                                @@@@@@@@@@@@@@@@@@@@@@@@",
"@@@@@@@@@@@@@@@@@@@@@@@@                                                @@@@@@@@@@@@@@@@@@@@@@@@",
"@@@@@@@@@@@@@@@@@@@@@@@@                                                @@@@@@@@@@@@@@@@@@@@@@@@",
"@@@@@@@@@@@@@@@@@@@@@@@@                                                @@@@@@@@@@@@@@@@@@@@@@@@",
"@@@@@@@@@@@@@@@@@@      ++++++++++++++++++++++++OOOOOOOOOOOOOOOOOOOOOOOO      @@@@@@@@@@@@@@@@@@",
"@@@@@@@@@@@@@@@@@@      ++++++++++++++++++++++++OOOOOOOOOOOOOOOOOOOOOOOO      @@@@@@@@@@@@@@@@@@",
"@@@@@@@@@@@@@@@@@@      ++++++++++++++++++++++++OOOOOOOOOOOOOOOOOOOOOOOO      @@@@@@@@@@@@@@@@@@",
"@@@@@@@@@@@@@@@@@@      ++++++++++++++++++++++++OOOOOOOOOOOOOOOOOOOOOOOO      @@@@@@@@@@@@@@@@@@",
"@@@@@@@@@@@@@@@@@@      ++++++++++++++++++++++++OOOOOOOOOOOOOOOOOOOOOOOO      @@@@@@@@@@@@@@@@@@",
"@@@@@@@@@@@@@@@@@@      ++++++++++++++++++++++++OOOOOOOOOOOOOOOOOOOOOOOO      @@@@@@@@@@@@@@@@@@",
"@@@@@@@@@@@@      ++++++++++++++++++++++++++++++OOOOOOOOOOOOOOOOOOOOOOOOOOOOOO      @@@@@@@@@@@@",
"@@@@@@@@@@@@      ++++++++++++++++++++++++++++++OOOOOOOOOOOOOOOOOOOOOOOOOOOOOO      @@@@@@@@@@@@",
"@@@@@@@@@@@@      ++++++++++++++++++++++++++++++OOOOOOOOOOOOOOOOOOOOOOOOOOOOOO      @@@@@@@@@@@@",
"@@@@@@@@@@@@      ++++++++++++++++++++++++++++++OOOOOOOOOOOOOOOOOOOOOOOOOOOOOO      @@@@@@@@@@@@",
"@@@@@@@@@@@@      ++++++++++++++++++++++++++++++OOOOOOOOOOOOOOOOOOOOOOOOOOOOOO      @@@@@@@@@@@@",
"@@@@@@@@@@@@      ++++++++++++++++++++++++++++++OOOOOOOOOOOOOOOOOOOOOOOOOOOOOO      @@@@@@@@@@@@",
"@@@@@@      ++++++++++++++++++ooooooooooooooooooooooooooooooOOOOOOOOOOOOOOOOOOOOOOOO      @@@@@@",
"@@@@@@      ++++++++++++++++++ooooooooooooooooooooooooooooooOOOOOOOOOOOOOOOOOOOOOOOO      @@@@@@",
"@@@@@@      ++++++++++++++++++ooooooooooooooooooooooooooooooOOOOOOOOOOOOOOOOOOOOOOOO      @@@@@@",
"@@@@@@      ++++++++++++++++++ooooooooooooooooooooooooooooooOOOOOOOOOOOOOOOOOOOOOOOO      @@@@@@",
"@@@@@@      ++++++++++++++++++ooooooooooooooooooooooooooooooOOOOOOOOOOOOOOOOOOOOOOOO      @@@@@@",
"@@@@@@      ++++++++++++++++++ooooooooooooooooooooooooooooooOOOOOOOOOOOOOOOOOOOOOOOO      @@@@@@",
"      ++++++++++++++++++ooooooXXXXXXXXXXXXXXXXXXOOOOOOOOOOOOooooooOOOOOOOOOOOOOOOOOOOOOOOO      ",
"      ++++++++++++++++++ooooooXXXXXXXXXXXXXXXXXXOOOOOOOOOOOOooooooOOOOOOOOOOOOOOOOOOOOOOOO      ",
"      ++++++++++++++++++ooooooXXXXXXXXXXXXXXXXXXOOOOOOOOOOOOooooooOOOOOOOOOOOOOOOOOOOOOOOO      ",
"      ++++++++++++++++++ooooooXXXXXXXXXXXXXXXXXXOOOOOOOOOOOOooooooOOOOOOOOOOOOOOOOOOOOOOOO      ",
"      ++++++++++++++++++ooooooXXXXXXXXXXXXXXXXXXOOOOOOOOOOOOooooooOOOOOOOOOOOOOOOOOOOOOOOO      ",
"      ++++++++++++++++++ooooooXXXXXXXXXXXXXXXXXXOOOOOOOOOOOOooooooOOOOOOOOOOOOOOOOOOOOOOOO      ",
"      ++++++++++++ooooooXXXXXXXXXXXX      OOOOOOOOOOOO      OOOOOOooooooOOOOOOOOOOOOOOOOOO      ",
"      ++++++++++++ooooooXXXXXXXXXXXX      OOOOOOOOOOOO      OOOOOOooooooOOOOOOOOOOOOOOOOOO      ",
"      ++++++++++++ooooooXXXXXXXXXXXX      OOOOOOOOOOOO      OOOOOOooooooOOOOOOOOOOOOOOOOOO      ",
"      ++++++++++++ooooooXXXXXXXXXXXX      OOOOOOOOOOOO      OOOOOOooooooOOOOOOOOOOOOOOOOOO      ",
"      ++++++++++++ooooooXXXXXXXXXXXX      OOOOOOOOOOOO      OOOOOOooooooOOOOOOOOOOOOOOOOOO      ",
"      ++++++++++++ooooooXXXXXXXXXXXX      OOOOOOOOOOOO      OOOOOOooooooOOOOOOOOOOOOOOOOOO      ",
"      ++++++++++++ooooooXXXXXX            OOOOOO      OOOOOO      ooooooOOOOOOOOOOOOOOOOOO      ",
"      ++++++++++++ooooooXXXXXX            OOOOOO      OOOOOO      ooooooOOOOOOOOOOOOOOOOOO      ",
"      ++++++++++++ooooooXXXXXX            OOOOOO      OOOOOO      ooooooOOOOOOOOOOOOOOOOOO      ",
"      ++++++++++++ooooooXXXXXX            OOOOOO      OOOOOO      ooooooOOOOOOOOOOOOOOOOOO      ",
"      ++++++++++++ooooooXXXXXX            OOOOOO      OOOOOO      ooooooOOOOOOOOOOOOOOOOOO      ",
"      ++++++++++++ooooooXXXXXX            OOOOOO      OOOOOO      ooooooOOOOOOOOOOOOOOOOOO      ",
"      ++++++++++++oooooo      OOOOOO      OOOOOOOOOOOOOOOOOO      ooooooOOOOOOOOOOOO......      ",
"      ++++++++++++oooooo      OOOOOO      OOOOOOOOOOOOOOOOOO      ooooooOOOOOOOOOOOO......      ",
"      ++++++++++++oooooo      OOOOOO      OOOOOOOOOOOOOOOOOO      ooooooOOOOOOOOOOOO......      ",
"      ++++++++++++oooooo      OOOOOO      OOOOOOOOOOOOOOOOOO      ooooooOOOOOOOOOOOO......      ",
"      ++++++++++++oooooo      OOOOOO      OOOOOOOOOOOOOOOOOO      ooooooOOOOOOOOOOOO......      ",
"      ++++++++++++oooooo      OOOOOO      OOOOOOOOOOOOOOOOOO      ooooooOOOOOOOOOOOO......      ",
"      OOOOOOOOOOOO                              OOOOOO      OOOOOOooooooOOOOOOOOOOOO......      ",
"      OOOOOOOOOOOO                              OOOOOO      OOOOOOooooooOOOOOOOOOOOO......      ",
"      OOOOOOOOOOOO                              OOOOOO      OOOOOOooooooOOOOOOOOOOOO......      ",
"      OOOOOOOOOOOO                              OOOOOO      OOOOOOooooooOOOOOOOOOOOO......      ",
"      OOOOOOOOOOOO                              OOOOOO      OOOOOOooooooOOOOOOOOOOOO......      ",
"      OOOOOOOOOOOO                              OOOOOO      OOOOOOooooooOOOOOOOOOOOO......      ",
"      OOOOOOOOOOOOooooooOOOOOOOOOOOO      OOOOOO      OOOOOOOOOOOOooooooOOOOOOOOOOOO......      ",
"      OOOOOOOOOOOOooooooOOOOOOOOOOOO      OOOOOO      OOOOOOOOOOOOooooooOOOOOOOOOOOO......      ",
"      OOOOOOOOOOOOooooooOOOOOOOOOOOO      OOOOOO      OOOOOOOOOOOOooooooOOOOOOOOOOOO......      ",
"      OOOOOOOOOOOOooooooOOOOOOOOOOOO      OOOOOO      OOOOOOOOOOOOooooooOOOOOOOOOOOO......      ",
"      OOOOOOOOOOOOooooooOOOOOOOOOOOO      OOOOOO      OOOOOOOOOOOOooooooOOOOOOOOOOOO......      ",
"      OOOOOOOOOOOOooooooOOOOOOOOOOOO      OOOOOO      OOOOOOOOOOOOooooooOOOOOOOOOOOO......      ",
"      OOOOOOOOOOOOooooooOOOOOOOOOOOO      OOOOOO                  ooooooOOOOOOOOOOOO......      ",
"      OOOOOOOOOOOOooooooOOOOOOOOOOOO      OOOOOO                  ooooooOOOOOOOOOOOO......      ",
"      OOOOOOOOOOOOooooooOOOOOOOOOOOO      OOOOOO                  ooooooOOOOOOOOOOOO......      ",
"      OOOOOOOOOOOOooooooOOOOOOOOOOOO      OOOOOO                  ooooooOOOOOOOOOOOO......      ",
"      OOOOOOOOOOOOooooooOOOOOOOOOOOO      OOOOOO                  ooooooOOOOOOOOOOOO......      ",
"      OOOOOOOOOOOOooooooOOOOOOOOOOOO      OOOOOO                  ooooooOOOOOOOOOOOO......      ",
"      OOOOOOOOOOOOOOOOOOooooooOOOOOOOOOOOOOOOOOOOOOOOOOOOOOOooooooOOOOOOOOOOOOOOOOOO......      ",
"      OOOOOOOOOOOOOOOOOOooooooOOOOOOOOOOOOOOOOOOOOOOOOOOOOOOooooooOOOOOOOOOOOOOOOOOO......      ",
"      OOOOOOOOOOOOOOOOOOooooooOOOOOOOOOOOOOOOOOOOOOOOOOOOOOOooooooOOOOOOOOOOOOOOOOOO......      ",
"      OOOOOOOOOOOOOOOOOOooooooOOOOOOOOOOOOOOOOOOOOOOOOOOOOOOooooooOOOOOOOOOOOOOOOOOO......      ",
"      OOOOOOOOOOOOOOOOOOooooooOOOOOOOOOOOOOOOOOOOOOOOOOOOOOOooooooOOOOOOOOOOOOOOOOOO......      ",
"      OOOOOOOOOOOOOOOOOOooooooOOOOOOOOOOOOOOOOOOOOOOOOOOOOOOooooooOOOOOOOOOOOOOOOOOO......      ",
"@@@@@@      OOOOOOOOOOOOOOOOOOooooooooooooooooooooooooooooooOOOOOOOOOOOOOOOOOO......      @@@@@@",
"@@@@@@      OOOOOOOOOOOOOOOOOOooooooooooooooooooooooooooooooOOOOOOOOOOOOOOOOOO......      @@@@@@",
"@@@@@@      OOOOOOOOOOOOOOOOOOooooooooooooooooooooooooooooooOOOOOOOOOOOOOOOOOO......      @@@@@@",
"@@@@@@      OOOOOOOOOOOOOOOOOOooooooooooooooooooooooooooooooOOOOOOOOOOOOOOOOOO......      @@@@@@",
"@@@@@@      OOOOOOOOOOOOOOOOOOooooooooooooooooooooooooooooooOOOOOOOOOOOOOOOOOO......      @@@@@@",
"@@@@@@      OOOOOOOOOOOOOOOOOOooooooooooooooooooooooooooooooOOOOOOOOOOOOOOOOOO......      @@@@@@",
"@@@@@@@@@@@@      OOOOOOOOOOOOOOOOOOOOOOOOOOOOOOOOOOOOOOOOOOOOOOOOOOOOOO......      @@@@@@@@@@@@",
"@@@@@@@@@@@@      OOOOOOOOOOOOOOOOOOOOOOOOOOOOOOOOOOOOOOOOOOOOOOOOOOOOOO......      @@@@@@@@@@@@",
"@@@@@@@@@@@@      OOOOOOOOOOOOOOOOOOOOOOOOOOOOOOOOOOOOOOOOOOOOOOOOOOOOOO......      @@@@@@@@@@@@",
"@@@@@@@@@@@@      OOOOOOOOOOOOOOOOOOOOOOOOOOOOOOOOOOOOOOOOOOOOOOOOOOOOOO......      @@@@@@@@@@@@",
"@@@@@@@@@@@@      OOOOOOOOOOOOOOOOOOOOOOOOOOOOOOOOOOOOOOOOOOOOOOOOOOOOOO......      @@@@@@@@@@@@",
"@@@@@@@@@@@@      OOOOOOOOOOOOOOOOOOOOOOOOOOOOOOOOOOOOOOOOOOOOOOOOOOOOOO......      @@@@@@@@@@@@",
"@@@@@@@@@@@@@@@@@@      OOOOOOOOOOOOOOOOOOOOOOOOOOOOOO..................      @@@@@@@@@@@@@@@@@@",
"@@@@@@@@@@@@@@@@@@      OOOOOOOOOOOOOOOOOOOOOOOOOOOOOO..................      @@@@@@@@@@@@@@@@@@",
"@@@@@@@@@@@@@@@@@@      OOOOOOOOOOOOOOOOOOOOOOOOOOOOOO..................      @@@@@@@@@@@@@@@@@@",
"@@@@@@@@@@@@@@@@@@      OOOOOOOOOOOOOOOOOOOOOOOOOOOOOO..................      @@@@@@@@@@@@@@@@@@",
"@@@@@@@@@@@@@@@@@@      OOOOOOOOOOOOOOOOOOOOOOOOOOOOOO..................      @@@@@@@@@@@@@@@@@@",
"@@@@@@@@@@@@@@@@@@      OOOOOOOOOOOOOOOOOOOOOOOOOOOOOO..................      @@@@@@@@@@@@@@@@@@",
"@@@@@@@@@@@@@@@@@@@@@@@@                                                @@@@@@@@@@@@@@@@@@@@@@@@",
"@@@@@@@@@@@@@@@@@@@@@@@@                                                @@@@@@@@@@@@@@@@@@@@@@@@",
"@@@@@@@@@@@@@@@@@@@@@@@@                                                @@@@@@@@@@@@@@@@@@@@@@@@",
"@@@@@@@@@@@@@@@@@@@@@@@@                                                @@@@@@@@@@@@@@@@@@@@@@@@",
"@@@@@@@@@@@@@@@@@@@@@@@@                                                @@@@@@@@@@@@@@@@@@@@@@@@",
"@@@@@@@@@@@@@@@@@@@@@@@@                                                @@@@@@@@@@@@@@@@@@@@@@@@"
};
