/* XPM */
static char *b0df2f20b23c404ea80b05807c5df065bBNUQ0y841MJXh72[] = {
/* columns rows colors chars-per-pixel */
"96 96 7 1 ",
"  c #101010",
". c #887300",
"X c #C0A200",
"o c #E0BD00",
"O c #FFE140",
"+ c #FFE978",
"@ c None",
/* pixels */
"@@@@@@@@@@@@@@@@@@@@@@@@                                                @@@@@@@@@@@@@@@@@@@@@@@@",
"@@@@@@@@@@@@@@@@@@@@@@@@                                                @@@@@@@@@@@@@@@@@@@@@@@@",
"@@@@@@@@@@@@@@@@@@@@@@@@                                                @@@@@@@@@@@@@@@@@@@@@@@@",
"@@@@@@@@@@@@@@@@@@@@@@@@                                                @@@@@@@@@@@@@@@@@@@@@@@@",
"@@@@@@@@@@@@@@@@@@@@@@@@                                                @@@@@@@@@@@@@@@@@@@@@@@@",
"@@@@@@@@@@@@@@@@@@@@@@@@                                                @@@@@@@@@@@@@@@@@@@@@@@@",
"@@@@@@@@@@@@@@@@@@      ++++++++++++++++++++++++OOOOOOOOOOOOOOOOOOOOOOOO      @@@@@@@@@@@@@@@@@@",
"@@@@@@@@@@@@@@@@@@      ++++++++++++++++++++++++OOOOOOOOOOOOOOOOOOOOOOOO      @@@@@@@@@@@@@@@@@@",
"@@@@@@@@@@@@@@@@@@      ++++++++++++++++++++++++OOOOOOOOOOOOOOOOOOOOOOOO      @@@@@@@@@@@@@@@@@@",
"@@@@@@@@@@@@@@@@@@      ++++++++++++++++++++++++OOOOOOOOOOOOOOOOOOOOOOOO      @@@@@@@@@@@@@@@@@@",
"@@@@@@@@@@@@@@@@@@      ++++++++++++++++++++++++OOOOOOOOOOOOOOOOOOOOOOOO      @@@@@@@@@@@@@@@@@@",
"@@@@@@@@@@@@@@@@@@      ++++++++++++++++++++++++OOOOOOOOOOOOOOOOOOOOOOOO      @@@@@@@@@@@@@@@@@@",
"@@@@@@@@@@@@      ++++++++++++++++++++++++++++++OOOOOOOOOOOOOOOOOOOOOOOOOOOOOO      @@@@@@@@@@@@",
"@@@@@@@@@@@@      ++++++++++++++++++++++++++++++OOOOOOOOOOOOOOOOOOOOOOOOOOOOOO      @@@@@@@@@@@@",
"@@@@@@@@@@@@      ++++++++++++++++++++++++++++++OOOOOOOOOOOOOOOOOOOOOOOOOOOOOO      @@@@@@@@@@@@",
"@@@@@@@@@@@@      ++++++++++++++++++++++++++++++OOOOOOOOOOOOOOOOOOOOOOOOOOOOOO      @@@@@@@@@@@@",
"@@@@@@@@@@@@      ++++++++++++++++++++++++++++++OOOOOOOOOOOOOOOOOOOOOOOOOOOOOO      @@@@@@@@@@@@",
"@@@@@@@@@@@@      ++++++++++++++++++++++++++++++OOOOOOOOOOOOOOOOOOOOOOOOOOOOOO      @@@@@@@@@@@@",
"@@@@@@      ++++++++++++++++++ooooooooooooooooooooooooooooooOOOOOOOOOOOOOOOOOOOOOOOO      @@@@@@",
"@@@@@@      ++++++++++++++++++ooooooooooooooooooooooooooooooOOOOOOOOOOOOOOOOOOOOOOOO      @@@@@@",
"@@@@@@      ++++++++++++++++++ooooooooooooooooooooooooooooooOOOOOOOOOOOOOOOOOOOOOOOO      @@@@@@",
"@@@@@@      ++++++++++++++++++ooooooooooooooooooooooooooooooOOOOOOOOOOOOOOOOOOOOOOOO      @@@@@@",
"@@@@@@      ++++++++++++++++++ooooooooooooooooooooooooooooooOOOOOOOOOOOOOOOOOOOOOOOO      @@@@@@",
"@@@@@@      ++++++++++++++++++ooooooooooooooooooooooooooooooOOOOOOOOOOOOOOOOOOOOOOOO      @@@@@@",
"      ++++++++++++++++++ooooooXXXXXXXXXXXXXXXXXXOOOOOOOOOOOOooooooOOOOOOOOOOOOOOOOOOOOOOOO      ",
"      ++++++++++++++++++ooooooXXXXXXXXXXXXXXXXXXOOOOOOOOOOOOooooooOOOOOOOOOOOOOOOOOOOOOOOO      ",
"      ++++++++++++++++++ooooooXXXXXXXXXXXXXXXXXXOOOOOOOOOOOOooooooOOOOOOOOOOOOOOOOOOOOOOOO      ",
"      ++++++++++++++++++ooooooXXXXXXXXXXXXXXXXXXOOOOOOOOOOOOooooooOOOOOOOOOOOOOOOOOOOOOOOO      ",
"      ++++++++++++++++++ooooooXXXXXXXXXXXXXXXXXXOOOOOOOOOOOOooooooOOOOOOOOOOOOOOOOOOOOOOOO      ",
"      ++++++++++++++++++ooooooXXXXXXXXXXXXXXXXXXOOOOOOOOOOOOooooooOOOOOOOOOOOOOOOOOOOOOOOO      ",
"      ++++++++++++ooooooXXXXXXXXXXXX      OOOOOOOOOOOOOOOOOOOOOOOOooooooOOOOOOOOOOOOOOOOOO      ",
"      ++++++++++++ooooooXXXXXXXXXXXX      OOOOOOOOOOOOOOOOOOOOOOOOooooooOOOOOOOOOOOOOOOOOO      ",
"      ++++++++++++ooooooXXXXXXXXXXXX      OOOOOOOOOOOOOOOOOOOOOOOOooooooOOOOOOOOOOOOOOOOOO      ",
"      ++++++++++++ooooooXXXXXXXXXXXX      OOOOOOOOOOOOOOOOOOOOOOOOooooooOOOOOOOOOOOOOOOOOO      ",
"      ++++++++++++ooooooXXXXXXXXXXXX      OOOOOOOOOOOOOOOOOOOOOOOOooooooOOOOOOOOOOOOOOOOOO      ",
"      ++++++++++++ooooooXXXXXXXXXXXX      OOOOOOOOOOOOOOOOOOOOOOOOooooooOOOOOOOOOOOOOOOOOO      ",
"      ++++++++++++ooooooXXXXXX            OOOOOOOOOOOO      OOOOOOooooooOOOOOOOOOOOOOOOOOO      ",
"      ++++++++++++ooooooXXXXXX            OOOOOOOOOOOO      OOOOOOooooooOOOOOOOOOOOOOOOOOO      ",
"      ++++++++++++ooooooXXXXXX            OOOOOOOOOOOO      OOOOOOooooooOOOOOOOOOOOOOOOOOO      ",
"      ++++++++++++ooooooXXXXXX            OOOOOOOOOOOO      OOOOOOooooooOOOOOOOOOOOOOOOOOO      ",
"      ++++++++++++ooooooXXXXXX            OOOOOOOOOOOO      OOOOOOooooooOOOOOOOOOOOOOOOOOO      ",
"      ++++++++++++ooooooXXXXXX            OOOOOOOOOOOO      OOOOOOooooooOOOOOOOOOOOOOOOOOO      ",
"      ++++++++++++oooooo      OOOOOO      OOOOOO      OOOOOO      ooooooOOOOOOOOOOOO......      ",
"      ++++++++++++oooooo      OOOOOO      OOOOOO      OOOOOO      ooooooOOOOOOOOOOOO......      ",
"      ++++++++++++oooooo      OOOOOO      OOOOOO      OOOOOO      ooooooOOOOOOOOOOOO......      ",
"      ++++++++++++oooooo      OOOOOO      OOOOOO      OOOOOO      ooooooOOOOOOOOOOOO......      ",
"      ++++++++++++oooooo      OOOOOO      OOOOOO      OOOOOO      ooooooOOOOOOOOOOOO......      ",
"      ++++++++++++oooooo      OOOOOO      OOOOOO      OOOOOO      ooooooOOOOOOOOOOOO......      ",
"      OOOOOOOOOOOO                              OOOOOOOOOOOO      ooooooOOOOOOOOOOOO......      ",
"      OOOOOOOOOOOO                              OOOOOOOOOOOO      ooooooOOOOOOOOOOOO......      ",
"      OOOOOOOOOOOO                              OOOOOOOOOOOO      ooooooOOOOOOOOOOOO......      ",
"      OOOOOOOOOOOO                              OOOOOOOOOOOO      ooooooOOOOOOOOOOOO......      ",
"      OOOOOOOOOOOO                              OOOOOOOOOOOO      ooooooOOOOOOOOOOOO......      ",
"      OOOOOOOOOOOO                              OOOOOOOOOOOO      ooooooOOOOOOOOOOOO......      ",
"      OOOOOOOOOOOOooooooOOOOOOOOOOOO      OOOOOOOOOOOO      OOOOOOooooooOOOOOOOOOOOO......      ",
"      OOOOOOOOOOOOooooooOOOOOOOOOOOO      OOOOOOOOOOOO      OOOOOOooooooOOOOOOOOOOOO......      ",
"      OOOOOOOOOOOOooooooOOOOOOOOOOOO      OOOOOOOOOOOO      OOOOOOooooooOOOOOOOOOOOO......      ",
"      OOOOOOOOOOOOooooooOOOOOOOOOOOO      OOOOOOOOOOOO      OOOOOOooooooOOOOOOOOOOOO......      ",
"      OOOOOOOOOOOOooooooOOOOOOOOOOOO      OOOOOOOOOOOO      OOOOOOooooooOOOOOOOOOOOO......      ",
"      OOOOOOOOOOOOooooooOOOOOOOOOOOO      OOOOOOOOOOOO      OOOOOOooooooOOOOOOOOOOOO......      ",
"      OOOOOOOOOOOOooooooOOOOOOOOOOOO      OOOOOO      OOOOOOOOOOOOooooooOOOOOOOOOOOO......      ",
"      OOOOOOOOOOOOooooooOOOOOOOOOOOO      OOOOOO      OOOOOOOOOOOOooooooOOOOOOOOOOOO......      ",
"      OOOOOOOOOOOOooooooOOOOOOOOOOOO      OOOOOO      OOOOOOOOOOOOooooooOOOOOOOOOOOO......      ",
"      OOOOOOOOOOOOooooooOOOOOOOOOOOO      OOOOOO      OOOOOOOOOOOOooooooOOOOOOOOOOOO......      ",
"      OOOOOOOOOOOOooooooOOOOOOOOOOOO      OOOOOO      OOOOOOOOOOOOooooooOOOOOOOOOOOO......      ",
"      OOOOOOOOOOOOooooooOOOOOOOOOOOO      OOOOOO      OOOOOOOOOOOOooooooOOOOOOOOOOOO......      ",
"      OOOOOOOOOOOOOOOOOOooooooOOOOOOOOOOOOOOOOOO                  OOOOOOOOOOOOOOOOOO......      ",
"      OOOOOOOOOOOOOOOOOOooooooOOOOOOOOOOOOOOOOOO                  OOOOOOOOOOOOOOOOOO......      ",
"      OOOOOOOOOOOOOOOOOOooooooOOOOOOOOOOOOOOOOOO                  OOOOOOOOOOOOOOOOOO......      ",
"      OOOOOOOOOOOOOOOOOOooooooOOOOOOOOOOOOOOOOOO                  OOOOOOOOOOOOOOOOOO......      ",
"      OOOOOOOOOOOOOOOOOOooooooOOOOOOOOOOOOOOOOOO                  OOOOOOOOOOOOOOOOOO......      ",
"      OOOOOOOOOOOOOOOOOOooooooOOOOOOOOOOOOOOOOOO                  OOOOOOOOOOOOOOOOOO......      ",
"@@@@@@      OOOOOOOOOOOOOOOOOOooooooooooooooooooooooooooooooOOOOOOOOOOOOOOOOOO......      @@@@@@",
"@@@@@@      OOOOOOOOOOOOOOOOOOooooooooooooooooooooooooooooooOOOOOOOOOOOOOOOOOO......      @@@@@@",
"@@@@@@      OOOOOOOOOOOOOOOOOOooooooooooooooooooooooooooooooOOOOOOOOOOOOOOOOOO......      @@@@@@",
"@@@@@@      OOOOOOOOOOOOOOOOOOooooooooooooooooooooooooooooooOOOOOOOOOOOOOOOOOO......      @@@@@@",
"@@@@@@      OOOOOOOOOOOOOOOOOOooooooooooooooooooooooooooooooOOOOOOOOOOOOOOOOOO......      @@@@@@",
"@@@@@@      OOOOOOOOOOOOOOOOOOooooooooooooooooooooooooooooooOOOOOOOOOOOOOOOOOO......      @@@@@@",
"@@@@@@@@@@@@      OOOOOOOOOOOOOOOOOOOOOOOOOOOOOOOOOOOOOOOOOOOOOOOOOOOOOO......      @@@@@@@@@@@@",
"@@@@@@@@@@@@      OOOOOOOOOOOOOOOOOOOOOOOOOOOOOOOOOOOOOOOOOOOOOOOOOOOOOO......      @@@@@@@@@@@@",
"@@@@@@@@@@@@      OOOOOOOOOOOOOOOOOOOOOOOOOOOOOOOOOOOOOOOOOOOOOOOOOOOOOO......      @@@@@@@@@@@@",
"@@@@@@@@@@@@      OOOOOOOOOOOOOOOOOOOOOOOOOOOOOOOOOOOOOOOOOOOOOOOOOOOOOO......      @@@@@@@@@@@@",
"@@@@@@@@@@@@      OOOOOOOOOOOOOOOOOOOOOOOOOOOOOOOOOOOOOOOOOOOOOOOOOOOOOO......      @@@@@@@@@@@@",
"@@@@@@@@@@@@      OOOOOOOOOOOOOOOOOOOOOOOOOOOOOOOOOOOOOOOOOOOOOOOOOOOOOO......      @@@@@@@@@@@@",
"@@@@@@@@@@@@@@@@@@      OOOOOOOOOOOOOOOOOOOOOOOOOOOOOO..................      @@@@@@@@@@@@@@@@@@",
"@@@@@@@@@@@@@@@@@@      OOOOOOOOOOOOOOOOOOOOOOOOOOOOOO..................      @@@@@@@@@@@@@@@@@@",
"@@@@@@@@@@@@@@@@@@      OOOOOOOOOOOOOOOOOOOOOOOOOOOOOO..................      @@@@@@@@@@@@@@@@@@",
"@@@@@@@@@@@@@@@@@@      OOOOOOOOOOOOOOOOOOOOOOOOOOOOOO..................      @@@@@@@@@@@@@@@@@@",
"@@@@@@@@@@@@@@@@@@      OOOOOOOOOOOOOOOOOOOOOOOOOOOOOO..................      @@@@@@@@@@@@@@@@@@",
"@@@@@@@@@@@@@@@@@@      OOOOOOOOOOOOOOOOOOOOOOOOOOOOOO..................      @@@@@@@@@@@@@@@@@@",
"@@@@@@@@@@@@@@@@@@@@@@@@                                                @@@@@@@@@@@@@@@@@@@@@@@@",
"@@@@@@@@@@@@@@@@@@@@@@@@                                                @@@@@@@@@@@@@@@@@@@@@@@@",
"@@@@@@@@@@@@@@@@@@@@@@@@                                                @@@@@@@@@@@@@@@@@@@@@@@@",
"@@@@@@@@@@@@@@@@@@@@@@@@                                                @@@@@@@@@@@@@@@@@@@@@@@@",
"@@@@@@@@@@@@@@@@@@@@@@@@                                                @@@@@@@@@@@@@@@@@@@@@@@@",
"@@@@@@@@@@@@@@@@@@@@@@@@                                                @@@@@@@@@@@@@@@@@@@@@@@@"
};
