/* XPM */
static char *_01497b21a714b618ed03b92295b63ccWjjsEoCAVCqSfBu2[] = {
/* columns rows colors chars-per-pixel */
"96 96 65 1 ",
"  c #1F005B",
". c #1F0062",
"X c #220063",
"o c #220064",
"O c #240064",
"+ c #240069",
"@ c #21006C",
"# c #26006F",
"$ c #250072",
"% c #280073",
"& c #290076",
"* c #280078",
"= c #2C0078",
"- c #2D007B",
"; c #30007F",
": c #320082",
"> c #320084",
", c #350085",
"< c #360088",
"1 c #3A008A",
"2 c #39008C",
"3 c #3E028F",
"4 c #3E0191",
"5 c #3F0390",
"6 c #420393",
"7 c #420395",
"8 c #430496",
"9 c #450497",
"0 c #470699",
"q c #4B079B",
"w c #4C069B",
"e c #4B079D",
"r c #4B069F",
"t c #4E069F",
"y c #47089A",
"u c #48089C",
"i c #4D089F",
"p c #510AA2",
"a c #540BA3",
"s c #500CA2",
"d c #570DA3",
"f c #560AA7",
"g c #580CA6",
"h c #5910A4",
"j c #5A10A6",
"k c #5A11A9",
"l c #5F11AB",
"z c #6012AC",
"x c #6112AF",
"c c #6518AE",
"v c #6518B1",
"b c #6A1AB3",
"n c #6D1DB4",
"m c #701FB6",
"M c #701FB7",
"N c #6F20B5",
"B c #7121B5",
"V c #7021B8",
"C c #7423BA",
"Z c #7625BB",
"A c #7423BC",
"S c #7728BB",
"D c #7828BB",
"F c #7D2EBF",
"G c #994CCE",
/* pixels */
"zzzzzzddddddbbbbbb999999dddddd111111333333jjjjjj222222::::::zzzzzzllllll>>>>>>******222222BBBBBB",
"zzzzzzddddddbbbbbb999999dddddd111111333333jjjjjj222222::::::zzzzzzllllll>>>>>>******222222BBBBBB",
"zzzzzzddddddbbbbbb999999dddddd111111333333jjjjjj222222::::::zzzzzzllllll>>>>>>******222222BBBBBB",
"zzzzzzddddddbbbbbb999999dddddd111111333333jjjjjj222222::::::zzzzzzllllll>>>>>:******222222BBBBBB",
"zzzzzzddddddbbbbbb999999dddddd111111333333jjjjjj222222::::::zzzzzzllllll>>>>>>******222222BBBBBB",
"zzzzzzddddddbbbbbb999999dddddd111111333333jjjjjj222222::::::zzzzzzllllll>>>>>>******222222BBBBBB",
"nnnnnnSSSSSSkkkkkkbbbbbbssssss======%%%%%%>>>>>>&&&&&&oooooo222222,,,,,,;;;;;;222222333333yyyyyy",
"nnnnnnSSSSSSkkkkkkbbbbbbssssss======%%%%%%>>>>>>&&&&&&oooooo222222,,,,,,;;;;;;222222333333yyyyyy",
"nnnnnnSSSSSSkkkkkkbbbbbbssssss======%%%%%%>>>>>>&&&&&&oooooo222222,,,,,,;;;;;;222222333333yyyyyy",
"nnnnnnSSSSSSkkkkkkbbbbbbssssss======%%%%%%>>>>>>&&&&&&oooooo222222,,,,,,;;;;;;222222333333yyyyyy",
"nnnnnnSSSSSSkkkkkkbbbbbbssssss======%%%%%%>>>>>>&&&&&&oooooo222222,,,,,,;;;;;;222222333333yyyyyy",
"nnnnnnSSSSSSkkkkkkbbbbbbssssss======%%%%%%>>>>>>&&&&&&oooooo222222,,,,,,;;;;;;222222333333yyyyyy",
"mmmmmm000000zzzzzzvvvvvv%%%%%% .... ::>>>>444444aaaaaa::::::999999qqqqqq+++++++###++777777qqqqqq",
"mmmmmm000000zzzzzzvvvvvv%%%%%% .....::>>>>444444aaaaaa::::::999999qqqqqq++++++####+#777777qqqqqq",
"mmmmmm000000zzzzzzvvvvvv%%%%%%......::>>>>444444aaaaaa::::::999999qqqqqq##+++++#####777777qqqqqq",
"mmmmmm000000zzzzzzvvvvvv%%%%%%......::>>>>444444aaaaaa::::::999999qqqqee####+++#####777777qqqqqq",
"mmmmmm000000zzzzzzvvvvvv%%%%%%......>>>>>>444444aaaaaa::::::999999qqqqqq############777777qqqqqq",
"mmmmmm000000zzzzzzvvvvvv%%%%%%......>>>>>>444444aaaaaa::::::999999qqqqqq########+###777777qqqqqq",
";;;;;;;;;;;;999999;;;;;;......<<<<<<zzzzzzffffffCCCCCCkkkkkkeeeeeeAAAAAA999999############1111<<",
";;;;;;;;;;;;999999;;;;;;......<<<<<<zzzzzzffffffCCCCCCkkkkkkeeeeeeAAAAAA999999############1111<<",
";;;;;;;;;;;;999999;;;;;;......<<<<<<zzzzzzffffffCCCCCCkkkkkkeeeeeeAAAAAA999999############111111",
";;;;;;;;;;;;999999;;;;;;......<<<<<<zzzzzzffffffCCCCCCkkkkkkeeeeeeAAAAAA999999############111111",
";;;;;;;;;;;;999999;;;;;;......<<<<<<zzzzzzffffffCCCCCCkkkkkkeeeeeeAAAAAA999999############111111",
";;;;;;;;;;;;999999;;;;;;......<<<<<<zzzzzzffffffCCCCCCkkkkkkeeeeeeAAAAAA999999############111111",
"@@@@@@%%%%%%<<<<,,%%%%%%<<<<<<nnnnnnggggggtttttteeeeeejjjjjj,,,,,,ddddddFFFFFF666666%%%%&&---=--",
"@@@@@@%%%%%%<<<<,,%%%%%%<<<<<<nnnnnnggggggtttttteeeeeejjjjjj,,,,,,ddddddFFFFFF666666%%%%&&--==--",
"@@@@@@%%%%%%<<<<<<%%%%%%<<<<<<nnnnnnggggggtttttteeeeeejjjjjj,,,,,,ddddddFFFFFF666666%%%%%&=====-",
"@@@@@@%%%%%%<<<<<<%%%%%%<<<<<<nnnnnnggggggtttttteeeeeejjjjjj,,,,,,ddddddFFFFFF666666%%%%%%======",
"@@@@@@%%%%%%<<<<<<%%%%%%<<<<<<nnnnnnggggggtttttteeeeeejjjjjj,,,,,,ddddddFFFFFF666666%%%%&%======",
"@@@@@@%%%%%%<<<<<<%%%%%%<<<<<<nnnnnnggggggtttttteeeeeejjjjjj,,,,,,ddddddFFFFFF666666%%%%&&======",
",,,,,,qqqqqqpppppp222222ppppppjjjjjjwwwwwwjjjjjj&&&&&&<<<<<<::::::::::::eeeeeevvvvvv<<<<<<1111<1",
",,,,,,qqqqqqpppppp222222ppppppjjjjjjwwwwwwjjjjjj&&&&&&<<<<<<::::::::::::eeeeeevvvvvv<<<<<<1111<<",
",,,,,,qqqqqqpppppp222222ppppppjjjjjjwwwwwwjjjjjj&&&&&&<<<<<<::::::::::::eeeeeevvvvbb1<<<<<1111<<",
",,,,,,qqqqqqpppppp222222ppppppjjjjjjwwwwwwjjjjjj&&&&&&<<<<<<::::::::::::eeeeeevvvvbb1<<<<<1111<<",
",,,,,,qqqqqqpppppp222222ppppppjjjjjjwwwwwwjjjjjj&&&&&&<<<<<<::::::::::::eeeeeevvvvvb<<<<<<11111<",
",,,,,,qqqqqqpppppp222222ppppppjjjjjjwwwwwwjjjjjj&&&&&&<<<<<<::::::::::::eeeeeevvvvbb<<<<<<111111",
";;;;;;ffffff<<<<<<######<<<<<<iiiiiimmmmBB444444::::::      %%%%%%;;;;;;>>>>>>222222======::;;;:",
";;;;;;ffffff<<<<<<######<<<<<<iiiiiimmmmBB444444::::::      %%%%%%;;;;;;>>>>>>222222======::;;;:",
";;;;;;ffffff<<<<<<######<<<<<<iiiiiimmmmBB444444::::::      %%%%%%;;;;;;>>>>>>222222======::;;::",
";;;;;;ffffff<<<<<<######<<<<<<iiiiiimmmmmB444444::::::      %%%%%%;;;;;;>>>>>>222222======:;;;::",
";;;;;;ffffff<<<<<<######<<<<<<iiiiiimmmmmm444444::::::      %%%%%%;;;;;;>>>>>>222222======::::::",
";;;;;;ffffff<<<<<<######<<<<<<iiiiiimmmmmm444444::::::      %%%%%%;;;;;;>>>>>>222222======::::::",
"......222222&&&&&&++++++777777mmmmmmnnnnnnwwwwww&&&&&&,,,,,,oooooo######888888dddddd;;;;;;ooXXXX",
"......222222&&&&&&++++++777777mmmmmmnnnnnnwwwwww&&&&&&,,,,,,oooooo######888888dddddd;;;;;;ooXXXX",
"......222222&&&&&&++++++777777VVmmmmnnnnnnwwwwww&&&&&&,,,,,,oooooo######888888dddddd;;;;;;XXXXXX",
"......222222&&&&&&++++++777777mVmmmmnnnnnnwwwwww&&&&&&,,,,,,oooooo######888888dddddd;;;;;;XXXXXX",
"....  222222&&&&&&++++++777777mVmmmmnnnnnnwwwwww&&&&&&,,,,,,oooooo######888888dddddd;;;;;;XXXXXX",
" .... 122222&&&&&&++++++777777mmmmmmnnnnnnwwwwww&&&&&&,,,,,,oooooo######888888dddddd;;;;;;XXXXXX",
"oooooo<<<<<<000999,,,,,,222222777777llllllGGGGGGmmmmmm<<<<<<oooooo==&&&=777777bvvvvv<<<<<<oooooo",
"oooooo<<<<<<009999,,,,,,222222777777llllllGGGGGGmmmmmm<<<<<<oooooo==&&&&777777bbvvvv<<<<<<oooooo",
"oooooo<<<<<<999999,,,,,,222222777777llllllGGGGGGmmmmmm<<<<<<oooooo&&&&&&777777vvvbvv<<<<<<oooooo",
"oooooo<<<<<<999999,,,,,,222222787777llllllGGGGGGmmmmmm<<<<<<oooooo&&&&&&777777vvbbvv<<11<<oooooo",
"oooooo<<<<<<999999,,,,,,222222887777llllllGGGGGGmmmmmm<<<<<<oooooo&&&&&&777777vvbbbb1111<<oooooo",
"oooooo<<<<<<999999,,,,,,222222887777llllllGGGGGGmmmmmm<<<<<<oooooo&&&&&&777777vvbbcv<<11<<oooooo",
"######;:;;;;222222######======gggggg000000tttttt000000======>>>>>>::::::======766666******%%%%%%",
"######;;;;;;222222######======gggggg000000tttttt000000======>>>>>>::::::======766666******%%%%%%",
"######;;;;;;222222######======gggggg000000tttttt000000======>>>>>>::::::======666666******%%%%%%",
"######;;;;;;222222######======gggggg000000tttttt000000======>>>>>>::::::======666666******%%%%%%",
"######;;;;;;222222######======gggggg000000tttttt000000======>>>>>>::::::======666666******%%%%%%",
"######;;;;;;222222######======gggggg000000tttttt000000======>>>>>>::::::======666666******%%%%%%",
"wwwwwwiiiiiijjjjjj<<<<<<OOOOOO;;;;;;777777;;;;;;****&&;;;;;;############iiiiiizzzzzz222222jjjjjj",
"wwwwwwiiiiiijjjjjj<<<<<<OOOOOO;;;;;;777777;;;;;;****&&;;;;;;############iiiiiizzzzzz222222jjjjjj",
"wwwwwwiiiiiijjjjjj<<<<<<OOOOOO;;;;;;777777;;;;;;****&&;;;;;;############uuiiiizzzxzz222222jjjjjj",
"wwwwwwiiiiiijjjjjj<<<<<<OOOOOO;;;;;;777777;;;;;;****&&;;;;;;############yuuiiizzzxzz222222jjjjjj",
"wwwwwwiiiiiijjjjjj<<<<<<OOOOOO;;;;;;777777::;;;;******;;;;;;############iiiiiizzzzzz222222jjjjjj",
"wwwwwwiiiiiijjjjjj<<<<<<OOOOOO;;;;;;777777::;;;;******;;;;;;############iiiiuuzzzzzz222222jjjjjj",
"llllll222222llllllZZZZZZ::::::######======$$$$$$%%%%%%>>>>>>######999999DDDDSScccccc::::::qqqqqq",
"llllll222222llllllZZZZZZ::::::######======$$$$$$%%%%%%>>>>>>######999999DDDDSScccccc::::::qqqqqq",
"llllll222222llllllZZZZZZ::::::######======$$$$$$%%%%%%>>>>>>######999999DDDDDDcccccc::::::qqqqqq",
"llllll222222llllllZZZZZZ::::::######======$$$$$$%%%%%%>>>>>>######999999DDDDDDcccccc::::::qqqqqq",
"llllll222222llllllZZZZZZ::::::######======$$$$$$%%%%%%>>>>>>######999999DDDDDDcccccc::::::qqqqqq",
"llllll222222llllllZZZZZZ::::::######======$$$$$$%%%%%%>>>>>>######999999DDDDDDcccccc::::::qqqqqq",
"::::::222222222222CCCCCCmmmmmm222222222222999999000000<<<<<<444466VVVVVVaaaaaa;;;;;;====&&:::::;",
"::::::222222222222CCCCCCmmmmmm222222222222999999000000<<<<<<664466VVVVVVaaaaaa;;;;;;===&&&::::;;",
"::::::222222222222CCCCCCmmmmmm222222222222999999000000<<<<<<666666VVVVVVaaaaaa;;;;;;==&&&&::;;;;",
"::::::222222222222CCCCCCmmmmmm222222222222999999000000<<<<<<666666VVVVVVaaaaaa;;;;;;==&&&&::;;;;",
"::::::222222222222CCCCCCmmmmmm222222222222999999000000<<<<<<776666VVVVVVaaaaaa;;;;;;&&&&&&;;::::",
"::::::222222222222CCCCCCmmmmmm222222222222999999000000<<<<<1776666VVVVVVaaaaaa;;;;;;&&&&&&;;::::",
"......<<<<<<444444777777ffffff000000999999vvbvbbbbbbbb222222ieeeeeqqqqqq&&&&=&######>>>>::######",
"......<<<<<<444444777777ffffff000000999999vvbbbbbbbbbb222222ieeeeeqqqqqq&&&&==######>>>:::######",
"......<<<<<<444444777777ffffff000000999999vvvvvbbbbbbb222222eeeeeeqqqqqq===&&&######>>>>>>######",
"......<<<<<<444444777777ffffff000000999999vvvvvvbbbbbb222222eeeeeeqqqqqq===&&&######>>>>>>######",
"......<<<<<<444444777777ffffff000000999999vvvvvvbbbbbb222222eeeeeeqqqqqq==&&&&######>>::>>######",
"......<<<<<<444444777777ffffff000000999999vvvvvvbbbbbb222222eeeeeeqqqqqq==&&&&######>:::>>######",
"%%%%%%######666666zzzzzz000000######......666666>>>>>>######<<<<<<222222***&**======&&%%%%==&&&&",
"%%%%%%######666666zzzzzz000000######......666666>>>>>>######<<<<<<222222**&&**======&&%%%%==&&&&",
"%%%%%%+++###666666zzzzzz000000######....X.666666>>>>>>######<<<<<<222222**&&**======&&&%%%==&&&&",
"%%%%%%+++###666666zzzzzz000000######....XX666666>>>>>>######<<<<<<222222***&**======&&&%%%===&&&",
"%%%%%%######666667zzzzzz000000######......666666>>>>>>######<<<<<<222222&&&***======%%%%%%&&&&&&",
"%%%%%%######666667zzzzzz000000######......666666>>>>>>######<<<<<<222222&&****======%%%%%%&&&&&&",
"%%%%%%::::::::::::vvvvvvmmmmmm999999######666644;;;;;;######dddddddddddd&&&&&&######>>>>:>NNBBNN",
"%%%%%%::::::::::::vvvvvvmmmmmm999999######666644;;;;;;######dddddddddddd&&&=&&######>>>>::NNBBBN",
"%%%%%%::::::::::::vvvvvvmmmmmm999999######666664;;;;;;######dddddddddddd====&&######>>>>>>NNBNNN",
"%%%%%%::::::::::::vvvvvvmmmmmm999999######666666;;;;;;######dddddddddddd====&&######>>>>>>NNBNNN",
"%%%%%%::::::::::::vvvvvvmmmmmm999999######666666;;;;;;######dddddddddddd==&&&&######>>>>>>NNNNNN",
"%%%%%%::::::::::::vvvvvvmmmmmm999999######666666;;;;;;######dddddddddddd&&&&&&######>>>>>>NNNNNN"
};
