/* XPM */
static char *_46644f2781e445cbfda61f234fcee28ekbQLP7leGAXBSvH[] = {
/* columns rows colors chars-per-pixel */
"16 16 122 2 ",
"   c black",
".  c #040304",
"X  c #070707",
"o  c #0A0B09",
"O  c #0B0D09",
"+  c gray6",
"@  c #10110D",
"#  c #101010",
"$  c #131412",
"%  c #191C16",
"&  c #171718",
"*  c #181A18",
"=  c #1C1B1C",
"-  c #1D1C1D",
";  c #1E2219",
":  c #202319",
">  c #21251B",
",  c #23231F",
"<  c #25291F",
"1  c #202020",
"2  c #292D21",
"3  c #282827",
"4  c #2A2C26",
"5  c #2D2D2B",
"6  c #2C2A2C",
"7  c #2D2C2D",
"8  c #2D3125",
"9  c #31312C",
"0  c #34392D",
"q  c #353732",
"w  c #3A3C32",
"e  c #3B3E37",
"r  c #3F3F3E",
"t  c #3C4231",
"y  c #414633",
"u  c #414634",
"i  c #414936",
"p  c #444837",
"a  c #43463A",
"s  c #44473B",
"d  c #45493E",
"f  c #494F3B",
"g  c #485238",
"h  c #4B533E",
"j  c #4C533F",
"k  c #4A553C",
"l  c #4D563E",
"z  c #4F5B3D",
"x  c #424342",
"c  c #454643",
"v  c #434245",
"b  c #464644",
"n  c #494E40",
"m  c #484847",
"M  c #4A4C45",
"N  c #49494A",
"B  c #4C4C4B",
"V  c #4D4D4F",
"C  c #4B5040",
"Z  c #4C5340",
"A  c #4F5547",
"S  c #4D5149",
"D  c #505941",
"F  c #535E40",
"G  c #545E43",
"H  c #525A44",
"J  c #575E47",
"K  c #545B48",
"L  c #555D49",
"P  c #555A4F",
"I  c #4F4E51",
"U  c gray32",
"Y  c #535452",
"T  c #545455",
"R  c #575B52",
"E  c #575855",
"W  c #5A5B57",
"Q  c #575659",
"!  c #595759",
"~  c #595A58",
"^  c #5C5B5B",
"/  c #5B5C5B",
"(  c #5D5E5A",
")  c #5B595E",
"_  c #5C5B5C",
"`  c #5F5D5E",
"'  c #566144",
"]  c #596346",
"[  c #5C624A",
"{  c #5A6548",
"}  c #5F654B",
"|  c #5E664C",
" . c #5F6A4C",
".. c #5B6151",
"X. c #5F6650",
"o. c #5E6157",
"O. c #5F605E",
"+. c #626A4D",
"@. c #636C4E",
"#. c #61635B",
"$. c #616758",
"%. c #64675A",
"&. c #61635D",
"*. c #66685C",
"=. c #686E59",
"-. c #5F5F62",
";. c #605F61",
":. c #626063",
">. c #646263",
",. c #646463",
"<. c #646464",
"1. c #696B61",
"2. c #67656A",
"3. c #686568",
"4. c #69696B",
"5. c #6B6C68",
"6. c #6C6A6D",
"7. c #6D6C6F",
"8. c #6F6D71",
"9. c #706F71",
"0. c #767377",
"q. c #787579",
/* pixels */
"8.9...J } +.@.[ L 5.1.X.1.o.] D ",
"q.3.3.Z } {  .F &.2.&.,.O.P F l ",
"q.6.:.A J j 8 < c 2.9 5 q 5 4 0 ",
"q.>.W :.d +   $ ~ `   - r     , ",
"0.` D S +   % ( :.h > o.b     3 ",
"3._ i O   = ! ~ H ' G k ;   X e ",
"~ m o   * Q U n l z g :   . b R ",
"x +   @ b N x r x s ;   X q B B ",
"8     o o X o X * 6.    1 *.f t ",
"2               * 7.    1 T   4 ",
"~ V V U V b o   * 4.- - 7 6 * w ",
"<.4.4.<.:.L X   & 4.` ;.-.<.P P ",
":.:.:.` ` l # X - %.| #.2.<.( ^ ",
"` ` T / K z E v ) =.$.;.` :.:.;.",
"T Y C C z R :.N Q K h W Q W ` ~ ",
"B s u y i V V b b a y p m I M s "
};
