/* XPM */
static char *_ba35e5e957140fd9f7f34cf66ad1ab0Yf2uldfJYgEfYHaS[] = {
/* columns rows colors chars-per-pixel */
"96 96 67 1 ",
"  c #1F005B",
". c #1F0062",
"X c #220063",
"o c #220066",
"O c #240064",
"+ c #240069",
"@ c #21006C",
"# c #25006C",
"$ c #250072",
"% c #280073",
"& c #290076",
"* c #2B0076",
"= c #280078",
"- c #2C0078",
"; c #2D007B",
": c #30007D",
"> c #320082",
", c #320084",
"< c #350085",
"1 c #370089",
"2 c #3A008A",
"3 c #39008C",
"4 c #3E028F",
"5 c #3E0191",
"6 c #3F0390",
"7 c #420393",
"8 c #420395",
"9 c #420296",
"0 c #450497",
"q c #470699",
"w c #4B079B",
"e c #4C069B",
"r c #4B079D",
"t c #4B069F",
"y c #4E069F",
"u c #47089A",
"i c #48089C",
"p c #4D089F",
"a c #510AA2",
"s c #540BA3",
"d c #500CA2",
"f c #570DA3",
"g c #560AA7",
"h c #580CA6",
"j c #5910A4",
"k c #5A10A6",
"l c #5A11A9",
"z c #5F11AB",
"x c #6012AC",
"c c #6112AF",
"v c #6518AE",
"b c #6518B1",
"n c #6719B0",
"m c #6A1AB3",
"M c #6D1DB4",
"N c #6D1DB5",
"B c #701FB7",
"V c #6F20B5",
"C c #7121B5",
"Z c #7021B8",
"A c #7423BA",
"S c #7625BB",
"D c #7423BC",
"F c #7728BB",
"G c #7828BB",
"H c #7D2EBF",
"J c #994CCE",
/* pixels */
"%%%%%%%%%%%%......>>>>>>zzzzzzeeeeee######oooooo......::::>><<<<<<@@@@@@::::::BBBBBBNNNNNNccccxx",
"%%%%%%%%%%%%......>>>>>>zzzzzzeeeeee######oooooo......::::>><<<<<<@@@@@@::::::BBBBBBNNNNNNccccxx",
"%%%%%%%%%%%%......>>>>>>zzzzzzeeeeee######oooooo......:::::><<<<<<@@@@@@::::::BBBBBBNNNNNNcccccc",
"%%%%%%%%%%%%......>>>>>>zzzzzzeeeeee######oooooo .....::::::<<<<<<@@@@@@>:::::BBBBBBNNNNNNcccccc",
"%%%%%%%%%%%%......>>>>>>zzzzzzeeeeee######oooooo  ....::::::<<<<<<@@@@@@>>::::BBBBBBNNNNNNcccccc",
"%%%%%%%%%%%%......>>>>>>zzzzzzeeeeee######oooooo  ....::::::<<<<<<@@@@@@>>::::BBBBBBNNNNNNcccccc",
">>>>>>######111111333333333333pppppp>>>>::111111233333ggggggwwwwww%%%%%%::::::qqqqqqFFFFFFffffff",
">>>>>>######111111333333333333pppppp>>>>::111111333333ggggggwwwwww%%%%%%::::::qqqqqqFFFFFFffffff",
">>>>>>######111111333333333333pppppp:::>>>111111333333ggggggwwwwww%%%%%%::::::qqqqqqFFFFFFffffff",
">>>>>>######111111333333333333pppppp::::>>111111333333ggggggwwwwww%%%%%%::::::qqqqqqFFFFFFffffff",
">>>>>>######111111333333333333pppppp::::::111111333333ggggggwwwwww%%%%%%::::::qqqqqqFFFFFFffffff",
">>>>>>######111111333333333333pppppp::::::111111333333ggggggwwwwww%%%%%%::::::qqqqqqFFFFFFffffff",
">>>>>>777777555555333333zzzzzzkkkkkk333333000000&&&&&&111111aaaaaa111111000000ccccccllllllmmmmmm",
">>>>>>777777555555333333zzzzzzkkkkkk333333000000&&&&&&111111aaaaaa111111000000ccccccllllllmmmmmm",
">>>>>>777777555555333333zzzzzzkkkkkk333333000000&&&&&&111111aaaaaa111111000000ccccccllllllmmmmmm",
">>>>>>777777555555333333zzzzzzkkkkkk333333000000&&&&&&111111aaaaaa111111000000ccccccllllllmmmmmm",
">>>>>>777777555555333333zzzzzzkkkkkk333333000000&&&&&&111111aaaaaa111111000000ccccccllllllmmmmmm",
">>>>>>777777555555333333zzzzzzkkkkkk333333000000&&&&&&111111aaaaaa111111000000ccccccllllllmmmmmm",
"bbbbbbcccccc999999AAAAAASSSSSS111111##$$##<<<<<<++++++######333333%%%%%%::::::bbbbbbmmmmmm000000",
"bbbbbbcccccc999999AAAAAASSSSSS111111##$$##<<<<<<++++++######333333%%%%%%::::::bbbbbbmmmmmm000000",
"bbbbbbcccccc999999AAAAAASSSSSS111111######<<<<<<++++++######333333%%%%%%::::::bbbbbbmmmmmm000000",
"bbbbbbcccccc999999AAAAAASSSSSS111111######<<<<<<++++++######333333%%%%%%::::::bbbbbbmmmmmm000000",
"bbbbbbcccccc999999AAAAAASSSSSS111111####$$<<<<<<++++++######333333%%%%%%::::::bbbbbbmmmmmm000000",
"bbbbbbcccccc999999AAAAAASSSSSS111111###$$$<<<<<<++++++######333333%%%%%%::::::bbbbbbmmmmmm000000",
"BBBBBBqqqqqqggggggBBBBBB>>>>>>OOOOOO------333333999999111111aaaaaa111111......%%%%%%ddddddffffff",
"BBBBBBqqqqqqggggggBBBBBB>>>>>>OOOOOO------333333999999111111aaaaaa111111......%%%%%%ddddddffffff",
"BBBBBBqqqqqqggggggBBBBBB>>>>>>OOOOOO------333333999999111111aaaaaa111111......%%%%%%ddddddffffff",
"BBBBBBqqqqqqggggggBBBBBB>>>>>>OOOOOO------333333999999111111aaaaaa111111......%%%%%%ddddddffffff",
"BBBBBBqqqqqqggggggBBBBBB>>>>>>OOOOOO------333333999999111111aaaaaa111111......%%%%%%ddddddffffff",
"BBBBBBqqqqqqggggggBBBBBB>>>>>>OOOOOO------333333999999111111aaaaaa111111......%%%%%%ddddddffffff",
"000000######qqqqqq333333######::::::hhhhhh999999BBBBBBppppppkkkkkkNNNNNN111111......------222222",
"000000######qqqqqq333333######::::::hhhhhh999999BBBBBBppppppkkkkkkNNNNNN111111......------222222",
"000000$$####qqqqqq333333######::::::hhhhhh999999BBBBBBppppppkkkkkkNNNNNN111111....  &-----222222",
"000000$$####qqqqqq333333######::::::hhhhhh999999BBBBBBppppppkkkkkkNNNNNN111111....  ------222222",
"000000#$#$##qqqqqq333333######::::::hhhhhh999999BBBBBBppppppkkkkkkNNNNNN111111..... ------222222",
"000000##$$##qqqqqq333333######::::::hhhhhh999999BBBBBBppppppkkkkkkNNNNNN111111..... ------222222",
"######......000000333333------999999qqqqqqzzzzzzNNNNNNBBBBBBeeeeeehhhhhhcccccc>>,,,,%%%%%%444444",
"######......000000333333------999999qqqqqqzzzzzzNNNNNNBBBBBBeeeeeehhhhhhcccccc>>,,,,%%%%%%444444",
"######......000000333333;;----999999qqqqqqzzzzzzNNNNNNBBBBBBeeeeeehhhhhhcccccc>>,,,,%%%%%%444444",
"######......000000333333------999999qqqqqqzzzzzzNNNNNNBBBBBBeeeeeehhhhhhcccccc>>,,,,%%%%%%444444",
"######......000000333333------999999qqqqqqzzzzzzNNNNNNBBBBBBeeeeeehhhhhhcccccc,,,,,,%%%%%%444444",
"######......000000333333------999999qqqqqqzzzzzzNNNNNNBBBBBBeeeeeehhhhhhcccccc,,,,,,%%%%%%444444",
"999999777777bbbbbb000000$$$$$$>>::::yyyyyyJJJJJJeeeeee555555kkkkkkyyyyyygggggg555555,,,,,,kkkkkk",
"999979777777bbbbbb000000$$$$$$>>::::yyyyyyJJJJJJeeeeee555555kkkkkkyyyyyygggggg555555,,,,,,kkkkkk",
"777777777777mmbbbb000000$$$$$$::::::yyyyyyJJJJJJeeeeee555555kkkkkkyyyyyygggggg555555,,,,,,kkkkkk",
"777777777777mmmbbb000000$$$$$$::::>>yyyyyyJJJJJJeeeeee555555kkkkkkyyyyyygggggg555555,,,,,,kkkkkk",
"757775777777mmbbbb000000$$$$$$::::>>yyyyyyJJJJJJeeeeee555555kkkkkkyyyyyygggggg555555,,,,,,kkkkkk",
"557775777777bmbbbb000000$$$$$$::::>>yyyyyyJJJJJJeeeeee555555kkkkkkyyyyyygggggg555555,,,,,,kkkkkk",
"----::,,,,,,mmmmmmqqqqqq%%%%%%======qqqqqqBBBBBB&&&&&&>>>>>>&&&&&&rrrrrrAAAAAAssssss&&&&&&333333",
"--::::,,,,,,mmmmmmqqqqqq%%%%%%======qqqqqqBBBBBB&&&&&&>>>>>>&&&&&&rrrrrrAAAAAAssssss&&&&&&333333",
"::::::,,,,,,mmmmmmqqqqqq%%%%%%======qqqqqqBBBBBB&&&&&&>>>>>>&&&&&&rrrrrrAAAAAAssssss&&&&&&333333",
"::::::,,,,,,mmmmmmqqqqqq%%%%%%======qqqqqqBBBBBB&&&&&&>>>>>>&&&&&&rrrrrrAAAAAAssssss&&&&&&333333",
"::::::,,,,,,mmmmmmqqqqqq%%%%%%======qqqqqqBBBBBB&&&&&&>>>>>>&&&&&&rrrrrrAAAAAAssssss&&&&&&333333",
"::::::,,,,,,mmmmmmqqqqqq%%%%%%======qqqqqqBBBBBB&&&&&&>>>>>>&&&&&&rrrrrrAAAAAAssssss&&&&&&333333",
"####$$######333333111111,,,,,,::::::------111111<<<<<<      111111kkkkkkllllll>>>>>>oooooo>>>>>>",
"####$$######333333111111,,,,,,::::::------111111<<<<<<      111111kkkkkkllllll>>>>>>oooooo>>>>>>",
"$$$$########333333111111,,,,,,::::::------111111<<<<<<      111111kkkkkkllllll>>>>>>oooooo>>>>>>",
"#$$$########333333111111,,,,,,::::::------111111<<<<<<      111111kkkkkkllllll>>>>>>oooooo>>>>>>",
"##$$########333333111111,,,,,,::::::------111111<<<<<<      111111kkkkkkllllll>>>>>>oooooo>>>>>>",
"##$$########333333111111,,,,,,::::::------111111<<<<<<      111111kkkkkkllllll>>>>>>Xooooo>>>>>>",
"ffffff111111pppprr777799############,,,,,,oooooooooooo%%%%%%>>>>>><<<<<<rrrrrr000000222222cccccc",
"ffffff111111pppprr777999############,,,,,,oooooooooooo%%%%%%>>>>>><<<<<<rrrrrr000000222222ccczcc",
"ffffff111111rrpprr557799######$$#$##,,,,,,oooooooooooo%%%%%%>>>>>><<<<<<rrrrrr000000332322cccccc",
"ffffff111111rrrprr557799######$$$$##,,,,,,oooooooooooo%%%%%%>>>>>><<<<<<rrrrrr000000333322cccccc",
"ffffff111111pprrrr777777########$$$$,,,,,,oooooooooooo&&%%%%>>>>>><<<<<<rrrrrr000000333333cccccc",
"ffffff111111pprrrr777777########$$$$,,,,,,oooooooooooo%&%%%%>>>>>><<<<<<rrrrrr000000333333cccccc",
"ffffff333333wwwwwwZZZZZZ0000qq######>>>>>>&&&&&&######::::::>>>>>>ffffffDDDDDDwwwwww<<<<<<zzzzzz",
"ffffff333333wwwwwwZZZZZZ0000qq######>>>>>>&&&&&&######::::::>>>>>>ffffffDDDDDDwwwwww<<<<<<zzzzzz",
"ffffff333333wweewwZZZZZZ00qqqq######>>>>>>&&&&&&######::::::>>>>>>ffffffDDDDDDwwwwww<<<<<<zzzzzz",
"ffffff333333weewwwZZZZZZ000qqq######>>>>>>&&&&&&######::::::>>>>>>ffffffDDDDDDwwwwww<<<<<<zzzzzz",
"ffffff333333wwewwwZZZZZZ000q00######>>>>>>&&&&&&######::::::>>>>>>ffffffDDDDDDwwwwww<<<<<<zzzzzz",
"ffffff333333wweewwZZZZZZ000000######>>>>>>&&&&&&######::::::>>>>>>ffffffDDDDDDwwwwww<<<<<<zzzzzz",
"&&&&&&======&&&&&&ssssssGGGGGGppuuuu------999999999999,,,,,,rrrrrrHHHHHH000000######::::::,,,,,,",
"&&&&&&======&&&&&&ssssssGGGGGGppuuuu------999999999999,,,,,,rrrrrrHHHHHH000000######::::::,,,,,,",
"&&&&&&======&&&&&&ssssssGGGGFGppuupp------999999999999,,,,,,rrrrrrHHHHHH000000######::::::,,,,,,",
"&&&&&&======&&&&&&ssssssGGGGFGppiiip------999999990999,,,,,,rryrrrHHHHHH00000q######::::::,,,,,,",
"&&&&&&======&&&&&&ssssssGGGGFFuupppp------999999999999,,,,,,rrrrrrHHHHHH000000######::::::,,,,,,",
"&&&&&&======&&&&&&ssssssGGGGFFuupppp------999999999999,,,,,,rrrrrrHHHHHH000000######::::::,,,,,,",
"######------######::::::vvvvvvcccccc777799bbbvmmffffff333333bbbbbb797777############333333======",
"######------######::::::vvvvvvcccccc777799bbmmmmffffff333333bbbbbb777777############333333======",
"######------######::::::vvvvvvcccccc777777bbbbbmffffff333333bbbbbb777777############333333======",
"######------######::::::vvvvvvcccccc777777bbbbbbffffff333333bbbbbb777777############333333======",
"######---;--######::::::vvvvvvcccccc777777bbbbbbffffff333333bbbbbb777777############333333======",
"######------######::::::vvvvvvcccccc777777bbbbbbffffff333333mbbbbb777777############333333======",
",,,,,,%%&&&&,,,,,,&&&&&&>>>>>>333333======122211::::::------111111%%&%%%######999999444444333333",
",,,,,,%%&&&&,,,,,,&&&&&&>>>>>>333333======111211::::::------111111%%&&%%######999999444444333333",
",,,,,,%%%%&&,,,,,,&&&&&&>>>>>>333333======211111::::::---;--111111%%&&&&######999999444444333333",
",,,,>>%%%%%%,,,,,,&&&&&&>>>>>>333333======211111::::::------111111%%&&&&######999999444444333333",
",,,,,,%%%%%%,,,,,,&&&&&&>>>>>>333333======111111::::::------111111%%%%%%######999999444444333333",
",,,,,,%%%%%%,,,,,,&&&&&&>>>>>>333333======111111::::::------111111%%%%&%######999999444444333333",
"VVVVVV&&&&&&######>>:>>>wwwwwwkkkkkk%%%%%%ooooooXXXXXX>>:>::222222----;;222122wwwwwwuuuuuuCCCCCC",
"VVVVVV&&&&&&######>>>>>>wwwwwwkkkkkk%%%%%%ooooooXXXXXX>>::::222222------222122wwwwwwuuuuuuCCCCCC",
"VVCCVV&&&&&&######>>>>>>wwwwwwkkkkkk%%%%%%ooooooXXXXXX>>>>>:222222-----;111122wwwwwwuuuuuuCCCCCC",
"VVCCVV&&&&&&######>>::>>wwwwwwkkkkkk%%%%%%ooooooXXXXXX>>>>>>222222----;;111122wwwwwwuuuuuuCCCCCC",
"VVVCVV&&&&&&######>>::::wwwwwwkkkkkk%%%%%%ooooooXXXXXX>>>>>>222222;;;;;;212222wwwwwwuuuuuuCCCCCC",
"VVVVVV&&&&&&######>>::::wwwwwwkkkkkk%%%%%%ooooooXXXXXX>>>>>>112222;;;;;;222222wwwwwwuuuuuuCCCCCC"
};
